<svg xmlns="http://www.w3.org/2000/svg" width="3440" height="2300" viewBox="0 0 3440 2300" fill="none">
<g clip-path="url(#clip0)">
<path d="M0 0H3440V2300H0V0Z" fill="none"/>
<path fill-rule="evenodd" clip-rule="evenodd" d="M251.709 1345.34C75.3965 1493.37 323.523 2294.08 1068.66 3181.95C1094.84 3213.05 1125.53 3200.6 1136.45 3164.86L1555.34 2148.92C1574.25 2106.54 1569.29 2084.24 1520.6 2058.58L251.709 1345.34Z" stroke="#5DC7A5" stroke-width="6" stroke-miterlimit="10"/>
<path fill-rule="evenodd" clip-rule="evenodd" d="M1562.31 284.469C1564.63 283.182 1565.88 280.699 1565.22 278.135C1520.84 106.697 1010.03 -268.004 -410.99 42.931C-466.191 55.0098 -476.583 94.5972 -444.777 152.876L121.921 1027.56C150.212 1068.07 175.78 1053.02 210.436 1036.11L1562.31 284.469Z" stroke="#D891C0" stroke-width="5" stroke-miterlimit="10"/>
<path fill-rule="evenodd" clip-rule="evenodd" d="M117.592 1905.5C355.605 1670.55 580.019 1578.51 631.698 1621.89C632.981 1622.97 633.261 1624.77 632.557 1626.29L453.549 2012.41C447.309 2027.23 440.889 2029.02 428.16 2024.65L124.632 1924.49C124.443 1924.42 124.246 1924.38 124.05 1924.34C113.104 1922.33 109.077 1913.85 117.592 1905.5Z" fill="#77BC43"/>
<path fill-rule="evenodd" clip-rule="evenodd" d="M2151.58 938.127C2150.54 942.418 2152.28 946.85 2156.26 948.748C2275.61 1005.57 2723.42 909.225 3250.98 6.16244C3271.7 -29.2936 3255.65 -54.3341 3208.84 -66.0157L2462.3 -193.579C2426.72 -198.395 2422.18 -177.322 2414.16 -150.471L2151.58 938.127Z" stroke="#F2C94C" stroke-width="5" stroke-miterlimit="10"/>
<path fill-rule="evenodd" clip-rule="evenodd" d="M1749.21 103.833C1647.41 163.815 1562.18 177.145 1544.86 159.337C1543.69 158.136 1543.86 156.278 1544.92 154.976L1640.73 36.6341C1644.23 31.9827 1646.64 31.9226 1650.73 34.5821L1748.26 96.4435C1748.43 96.5502 1748.6 96.643 1748.78 96.7296C1752.3 98.4268 1752.88 101.686 1749.21 103.833Z" fill="#D891C0"/>
<path d="M3565.55 1474.45L3565.55 1474.45L3565.56 1474.45C3570.28 1478.55 3574.11 1478.87 3576.65 1477.65C3579.33 1476.37 3581.71 1472.87 3582.31 1467C3582.34 1466.7 3582.39 1466.38 3582.47 1466.06L3669.21 1111.45L3669.22 1111.43L3669.22 1111.42C3671.11 1104.07 3671.18 1099.39 3669.31 1095.91C3667.44 1092.43 3663.23 1089.45 3654.64 1086.61L3654.6 1086.6L3654.56 1086.58L3198.49 917.372C3197.83 917.128 3197.3 917.355 3197.05 917.692C3191.77 924.927 3188.83 935.05 3188.48 947.952C3188.12 960.844 3190.35 976.341 3195.23 994.127C3205 1029.7 3225.27 1074.09 3256.06 1124.45C3317.63 1225.17 3421.02 1349.45 3565.55 1474.45Z" stroke="#5DC7A5" stroke-width="5"/>
</g>
</svg>