<svg xmlns="http://www.w3.org/2000/svg" width="196" height="32" viewBox="0 0 196 32">
    <g fill="none" fill-rule="evenodd">
        <path fill="#FFF" d="M133.93 22.66c-1.58 0-3.247-.438-3.793-.438-.603 0-1.178.437-1.178 2.008 0 0 2.069.932 5.172.932 5.257 0 6.579-2.154 6.579-4.86 0-3.26-1.667-4.045-4.683-5.093-2.815-.99-4.022-1.31-4.022-2.881 0-1.368.919-1.98 2.27-1.98 1.982 0 4.108.67 4.453.67.517 0 1.149-.698 1.149-1.833 0 0-2.184-1.251-5.085-1.251-4.597 0-5.775 2.386-5.775 4.481 0 2.706 1.092 3.725 2.93 4.453 3.247 1.28 5.488 1.542 5.488 3.463 0 1.485-.661 2.328-3.505 2.328zM46.878 8.544c-1.006-.35-2.213-.611-3.764-.611-5.085 0-7.613 3.171-7.613 8.905 0 5.122 1.81 8.323 6.521 8.323 2.442 0 4.051-1.368 4.827-2.299l.029.786c.058.523.259 1.193 1.32 1.193h1.754V2.986h-1.753c-1.091 0-1.321.64-1.321 1.222v4.337zm0 11.058s-1.839 3.086-4.683 3.086c-2.816 0-3.534-2.183-3.534-6.112 0-3.668.776-6.199 4.855-6.199 1.092 0 2.241.32 3.362.786v8.439zm41.515 5.239h3.045V13.317c0-4.19-2.183-5.383-6.58-5.383-4.136 0-7.44 2.182-7.44 2.182v14.726h3.045V11.338s2.126-.96 3.735-.96c3.42 0 4.195.844 4.195 2.619v11.845zm64.04-.524c0-.524-.059-1.135-.432-1.92 0 0-1.322.261-2.988.261s-2.127-.495-2.127-1.833V10.61h2.845c.633 0 1.293-.174 1.293-1.222V8.224h-4.195V3.102h-1.694c-1.093 0-1.294.582-1.294 1.165v16.908c0 2.736 1.552 3.987 4.77 3.987 2.47 0 3.677-.67 3.677-.67l.144-.174zM172.4 8.398v16.444h3.045v-11.99l5.688-2.096c.575-.203.833-.523.833-1.048 0-.465-.2-1.163-.574-1.979 0 0-3.879 1.34-5.947 2.561v-.785c0-.582-.202-1.106-1.293-1.106H172.4zm-7.04 11.205s-1.81 3.086-4.711 3.086c-2.73 0-3.448-2.183-3.448-6.112 0-3.668.775-6.199 4.855-6.199 1.092 0 2.212.32 3.305.786v8.439zm-38.957-3.026c0-5.472-2.328-8.643-7.614-8.643-5.2 0-7.585 3.171-7.585 8.643 0 5.384 2.385 8.585 7.585 8.585 5.229 0 7.614-3.201 7.614-8.585zm-3.16 0c0 4.19-1.236 6.169-4.454 6.169-3.132 0-4.425-1.979-4.425-6.17 0-4.248 1.322-6.228 4.425-6.228 3.103 0 4.453 1.98 4.453 6.229zm-13.274-8.382h-5.688c-.748-.174-2.127-.261-2.873-.261-4.023 0-6.408 1.92-6.408 5.238 0 1.367.316 2.823 1.667 3.987-1.15.728-1.35 1.6-1.35 2.62 0 .93.23 1.832 1.235 2.502-1.091.553-2.327 2.009-2.327 4.19 0 3.464 2.5 5.24 7.24 5.24 4.827 0 7.24-1.776 7.24-5.24 0-3.404-2.529-5.18-7.47-5.18-2.672 0-3.19-.465-3.19-1.513 0-1.106.834-1.426 3.363-1.426 5.486 0 6.434-2.881 6.434-5.18 0-.96-.258-1.834-.689-2.62h1.523c.66 0 1.293-.174 1.293-1.222V8.195zm-8.504 15.454c3.103 0 4.194.523 4.194 2.823 0 2.357-1.177 2.88-4.194 2.88-2.902 0-4.195-.523-4.195-2.88 0-2.3 1.035-2.823 4.195-2.823zm3.304-10.477c0 1.833-.546 2.968-3.42 2.968-2.843-.029-3.303-1.135-3.303-2.968 0-1.776.517-2.882 3.362-2.882 2.873 0 3.361 1.106 3.361 2.882zm-30.828 11.67V10.116s-2.643-2.182-6.837-2.182c-5.057 0-7.585 3.171-7.585 8.905 0 5.122 1.81 8.323 6.522 8.323 2.413 0 4.022-1.368 4.797-2.299l.058.786c.029.523.259 1.193 1.293 1.193h1.752zm-3.045-5.24s-1.867 3.087-4.712 3.087c-2.729 0-3.505-2.183-3.505-6.112 0-3.668.776-6.199 4.856-6.199 1.149 0 2.212.32 3.361.786v8.439zM53.572 6.625h1.293c1.35 0 1.867-.786 1.867-1.95 0-1.135-.43-1.834-1.81-1.834-1.091 0-1.35.64-1.35 1.222v2.562zm-.058 17.344c0 2.765-3.275 6.112-3.275 6.112.173.757 1.092 1.427 1.81 1.689 0 0 4.51-3.725 4.51-6.957V10.058c0-.553-.258-1.135-1.349-1.135h-1.696v15.045zm114.892.874V10.116s-2.587-2.182-6.78-2.182c-5.115 0-7.586 3.171-7.586 8.905 0 5.122 1.81 8.323 6.523 8.323 2.442 0 4.022-1.426 4.798-2.387v.874c0 .581.258 1.193 1.35 1.193h1.695zm20.082-2.183c-1.58 0-3.247-.437-3.792-.437-.603 0-1.179.437-1.179 2.008 0 0 2.07.932 5.172.932 5.257 0 6.58-2.154 6.58-4.86 0-3.26-1.667-4.045-4.684-5.093-2.815-.99-4.022-1.31-4.022-2.881 0-1.368.92-1.98 2.27-1.98 1.982 0 4.108.67 4.453.67.517 0 1.15-.698 1.15-1.833 0 0-2.184-1.251-5.087-1.251-4.596 0-5.773 2.386-5.773 4.481 0 2.706 1.091 3.725 2.93 4.453 3.246 1.28 5.487 1.542 5.487 3.463 0 1.485-.66 2.328-3.505 2.328z"/>
        <path fill="#77BC43" d="M12.762.377c.096-.146.048-.292-.144-.292h-9.27c-1.2 0-1.44.39-1.44 1.362l8.02 3.551c.24.146.48.05.577-.146L12.762.377zm13.495 27.048c.913 0 3.458-2.14 3.458-9.73 0-.292-.192-.388-.528-.292l-5.14 1.897c-.24.099-.191.245-.143.438l2.353 7.687zM24.095 2.663c0-1.07-3.65-2.578-9.124-2.578-.192 0-.24.146-.144.292l2.402 4.524c.095.195.191.243.432.146l6.434-2.384zM5.51 11.809c.193-.097.24-.194.144-.34L1.38 4.171c-.913 0-1.296.147-1.296 1.46v8.903c0 .146.095.292.288.194l5.138-2.919zM.372 16.87c-.193-.097-.288.048-.288.194v8.903c0 1.313.383 1.46 1.296 1.46l4.274-7.298c.096-.145.049-.244-.144-.34L.372 16.869zm10.133 10.02c-.097-.193-.336-.291-.577-.145l-8.02 3.552c0 .972.24 1.362 1.44 1.362h9.27c.192 0 .24-.146.144-.293l-2.257-4.475zm4.466 4.769c5.475 0 9.124-1.508 9.124-2.579l-6.483-2.383c-.24-.098-.336-.049-.432.146l-2.353 4.523c-.096.147-.048.293.144.293zm8.885-19.8c-.049.195-.096.34.144.437l5.282 1.947c.24.097.384-.05.384-.341.29-4.135-1.2-10.167-3.457-9.73l-2.353 7.686z"/>
    </g>
</svg>