<svg width="702" height="195" viewBox="0 0 702 195" fill="none" xmlns="http://www.w3.org/2000/svg">
<path fill-rule="evenodd" clip-rule="evenodd" d="M199.712 132.815C193.764 132.815 187.489 131.246 185.434 131.246C183.163 131.246 181 132.815 181 138.449C181 138.449 188.788 141.789 200.469 141.789C220.263 141.789 225.239 134.066 225.239 124.359C225.239 112.669 218.964 109.85 207.609 106.092C197.009 102.545 192.468 101.395 192.468 95.7596C192.468 90.8537 195.926 88.6607 201.011 88.6607C208.473 88.6607 216.479 91.0618 217.778 91.0618C219.723 91.0618 222.102 88.5583 222.102 84.4862C222.102 84.4862 213.882 80 202.958 80C185.652 80 181.217 88.5583 181.217 96.0724C181.217 105.778 185.328 109.433 192.248 112.042C204.473 116.634 212.908 117.575 212.908 124.462C212.908 129.789 210.421 132.815 199.712 132.815Z" fill="white"/>
<path fill-rule="evenodd" clip-rule="evenodd" d="M384.987 139.092C384.987 137.211 384.77 135.021 383.363 132.204C383.363 132.204 378.387 133.144 372.115 133.144C365.841 133.144 364.107 131.368 364.107 126.567V89.9294C364.107 88 363.894 82 363.894 81.3711V63H358.131C354.019 63 353.261 65.0872 353.261 67.1767V127.818C353.261 137.631 358.486 142.118 370.598 142.118C379.902 142.118 384.444 139.718 384.444 139.718L384.987 139.092Z" fill="white"/>
<path d="M238 140.655H248.945V118.542L255.965 111.405L273.983 140.655H286.332L264.102 104.502L285.045 81.857H276.343C274.094 81.857 271.949 82.8034 270.434 84.4644L248.945 108.012V57H242C239.791 57 238 58.7909 238 61V140.655Z" fill="white"/>
<path d="M290 112.473C290 132.129 302.548 141.606 317.875 141.606C330.394 141.606 336.5 136.702 339.052 127.811C339.264 127.071 339.5 126.702 339.52 125.702L333.542 125.099C331.706 124.913 330.112 126.232 329.314 127.896C326.916 132.892 321.385 133.884 317.992 133.884C310.036 133.884 301.899 129.555 301.899 113.058V112.473H337.514C339.632 112.473 341.406 110.823 341.483 108.707C341.506 108.076 341.52 107.46 341.52 106.857C341.52 89.19 331.096 81 317.407 81C297.634 81 290 97.497 290 112.473ZM317.173 89.254C324.778 89.254 329.99 93.987 329.99 103.23V105.102H302.367C303.888 92.583 310.387 89.254 317.173 89.254Z" fill="white"/>
<path d="M390 112.473C390 132.129 402.548 141.606 417.875 141.606C430.394 141.606 436.5 136.702 439.052 127.811C439.264 127.071 439.5 126.702 439.52 125.702L433.542 125.099C431.706 124.913 430.112 126.232 429.314 127.896C426.916 132.892 421.385 133.884 417.992 133.884C410.036 133.884 401.899 129.555 401.899 113.058V112.473H437.514C439.632 112.473 441.406 110.823 441.483 108.707C441.506 108.076 441.52 107.46 441.52 106.857C441.52 89.19 431.096 81 417.407 81C397.634 81 390 97.497 390 112.473ZM417.173 89.254C424.778 89.254 429.99 93.987 429.99 103.23V105.102H402.367C403.888 92.583 410.387 89.254 417.173 89.254Z" fill="white"/>
<path fill-rule="evenodd" clip-rule="evenodd" d="M482.783 139.092C482.783 137.211 482.566 135.021 481.16 132.204C481.16 132.204 476.184 133.144 469.912 133.144C463.637 133.144 461.904 131.368 461.904 126.567V89.9294H472.614C474.995 89.9294 477.482 89.3027 477.482 85.5456V81.3711H461.69V63H455.31C451.197 63 450.439 65.0872 450.439 67.1767V127.818C450.439 137.631 456.282 142.118 468.395 142.118C477.698 142.118 482.241 139.718 482.241 139.718L482.783 139.092Z" fill="white"/>
<path fill-rule="evenodd" clip-rule="evenodd" d="M518.912 80C538.814 80 547.578 91.3746 547.578 110.998C547.578 130.31 538.598 141.789 518.912 141.789C499.336 141.789 490.356 130.31 490.356 110.998C490.356 91.3746 499.336 80 518.912 80ZM518.911 133.127C531.028 133.127 535.678 126.029 535.678 111C535.678 95.7616 530.595 88.6627 518.911 88.6627C507.23 88.6627 502.255 95.7616 502.255 111C502.255 126.029 507.123 133.127 518.911 133.127Z" fill="white"/>
<path fill-rule="evenodd" clip-rule="evenodd" d="M599.534 140.643H611V99.3073C611 84.2769 602.779 80 586.229 80C570.655 80 558.215 87.8269 558.215 87.8269V140.643H569.68V92.2095C569.68 92.2095 577.684 88.7664 583.742 88.7664C596.614 88.7664 599.534 91.7921 599.534 98.1596V140.643Z" fill="white"/>
<path fill-rule="evenodd" clip-rule="evenodd" d="M117.953 15.7143C123.376 19.229 135.474 29.1223 131.122 45.3661L130.57 47.4249L163.796 36.5981C165.937 35.9006 168.443 36.0281 170.148 37.9118C171.681 39.6054 171.776 41.8824 171.297 43.7443L158.58 121.911L158.577 121.927C157.791 126.989 153.024 130.729 147.041 129.489L138.403 128.678L150.463 153.791C151.683 156.33 151.326 159.449 149.313 161.605C144.633 166.619 139.859 170.161 133.955 170.178C128.195 170.195 122.299 166.836 115.354 160.811L103.048 150.138L92.4526 189.682C91.8699 191.857 90.3962 193.888 87.8873 194.29C85.6317 194.651 83.671 193.489 82.3717 192.072L23.7873 138.784L23.7765 138.775C19.9608 135.355 19.4252 129.319 23.7281 124.98L28.942 118.404L9.6679 116.595C6.8631 116.332 4.37428 114.419 3.56301 111.583C1.67678 104.989 1.10159 99.0727 4.12912 94.0035C7.08262 89.0584 12.9992 85.7359 21.7408 82.8874L24.4845 81.9934L2.48837 62.9144C0.787574 61.4392 -0.394518 59.2254 0.341388 56.7935C1.00301 54.6071 2.90535 53.352 4.74797 52.8035L78.2927 23.428L78.3075 23.422C83.0515 21.4874 88.7128 23.646 90.7324 29.4127L94.0403 36.3009L109.102 17.3047C111.124 14.7547 114.874 13.7183 117.953 15.7143ZM29.7731 86.5806L23.5998 88.5922C15.0717 91.3711 11.0395 94.1346 9.28031 97.0801C7.59513 99.9017 7.54329 103.681 9.33166 109.933C9.42704 110.267 9.75105 110.577 10.2286 110.622L33.3892 112.795L44.2312 99.1213L29.7731 86.5806ZM36.0688 119.073L28.1997 128.998L28.0624 129.132C26.0818 131.063 26.5146 133.175 27.785 134.31L27.795 134.319L86.6464 187.85L86.7118 187.924L98.0081 145.766L71.0151 122.353L36.0688 119.073ZM63.2243 115.596L40.516 113.464L48.7681 103.057L63.2243 115.596ZM81.2831 123.317L99.7349 139.322L103.466 125.399L81.2831 123.317ZM105.041 119.52L73.4923 116.559L52.4995 98.3504L72.9998 72.495L100.468 63.5444L113.03 89.7033L105.041 119.52ZM109.525 125.967L104.775 143.693L119.285 156.279C126.061 162.156 130.507 164.188 133.937 164.178C137.224 164.168 140.49 162.266 144.927 157.511C145.163 157.258 145.262 156.82 145.054 156.388L131.433 128.024L109.525 125.967ZM128.402 121.713L111.1 120.089L117.017 98.0056L128.402 121.713ZM135.372 122.367L147.97 123.549L148.157 123.592C150.856 124.199 152.391 122.684 152.649 121L152.651 120.987L165.427 42.4641L165.453 42.3685L128.718 54.3391L119.401 89.1094L135.372 122.367ZM123.764 49.6426L125.326 43.8132C128.568 31.7141 119.8 24.0611 114.69 20.7491C114.578 20.6768 114.467 20.6558 114.33 20.6838C114.175 20.7153 113.974 20.8175 113.804 21.0324L96.9287 42.3154L103.603 56.2124L123.764 49.6426ZM106.223 61.669L121.912 56.5568L115.414 80.8071L106.223 61.669ZM97.8472 58.0878L92.7834 47.5435L79.7464 63.9861L97.8472 58.0878ZM69.4217 67.3504L89.8951 41.529L85.1635 31.6765L85.1032 31.4945C84.2331 28.8689 82.1441 28.3341 80.5676 28.98L80.5553 28.9851L6.67563 58.4944L6.57981 58.5207L31.1408 79.8244L69.4217 67.3504ZM62.6752 75.8593L36.4294 84.4116L47.9625 94.4152L62.6752 75.8593Z" fill="#5DC7A5"/>
<circle cx="87" cy="93" r="12" fill="white"/>
<path d="M637.174 85.312C637.174 87.36 635.915 88.384 633.398 88.384C630.88 88.384 629.622 87.36 629.622 85.312V41.024C629.622 40.0426 629.899 39.168 630.454 38.4C631.008 37.5893 632.075 37.184 633.654 37.184H655.414C656.95 37.184 657.76 38.2506 657.846 40.384C657.931 42.56 657.12 43.648 655.414 43.648H637.174V85.312ZM653.558 61.568C653.558 62.2933 653.408 62.9973 653.11 63.68C652.854 64.32 652.47 64.8746 651.958 65.344C651.488 65.8133 650.934 66.1973 650.294 66.496C649.654 66.752 648.95 66.88 648.182 66.88C646.731 66.88 645.494 66.368 644.47 65.344C643.446 64.32 642.934 63.0613 642.934 61.568C642.934 60.0746 643.446 58.816 644.47 57.792C645.494 56.768 646.731 56.256 648.182 56.256C648.95 56.256 649.654 56.4053 650.294 56.704C650.934 56.96 651.488 57.344 651.958 57.856C652.47 58.3253 652.854 58.88 653.11 59.52C653.408 60.16 653.558 60.8426 653.558 61.568Z" fill="#5DC7A5"/>
<path d="M668.904 88.064C667.325 88.064 666.258 87.6586 665.704 86.848C665.149 86.0373 664.872 85.1413 664.872 84.16V41.024C664.872 40.0426 665.149 39.168 665.704 38.4C666.258 37.5893 667.325 37.184 668.904 37.184H691.176C692.754 37.184 693.586 38.2506 693.672 40.384C693.757 42.56 692.925 43.648 691.176 43.648H672.424V81.6H692.328C693.906 81.6 694.717 82.6453 694.76 84.736C694.845 86.9546 694.034 88.064 692.328 88.064H668.904ZM688.808 61.568C688.808 63.0613 688.274 64.32 687.208 65.344C686.184 66.368 684.925 66.88 683.432 66.88C681.981 66.88 680.744 66.368 679.72 65.344C678.696 64.32 678.184 63.0613 678.184 61.568C678.184 60.0746 678.696 58.816 679.72 57.792C680.744 56.768 681.981 56.256 683.432 56.256C684.925 56.256 686.184 56.768 687.208 57.792C688.274 58.816 688.808 60.0746 688.808 61.568Z" fill="#5DC7A5"/>
<circle cx="683.5" cy="61.5" r="5.5" fill="white"/>
<circle cx="648.5" cy="61.5" r="5.5" fill="white"/>
</svg>
